<svg width="17" height="16" viewBox="0 0 17 16" fill="none" xmlns="http://www.w3.org/2000/svg">
<path d="M7.6397 3.21967C7.34681 2.92678 6.87193 2.92678 6.57904 3.21967C6.28615 3.51256 6.28615 3.98744 6.57904 4.28033L7.6397 3.21967ZM11.3594 8L11.8897 8.53033C12.1826 8.23744 12.1826 7.76256 11.8897 7.46967L11.3594 8ZM6.57904 11.7197C6.28615 12.0126 6.28615 12.4874 6.57904 12.7803C6.87193 13.0732 7.34681 13.0732 7.6397 12.7803L6.57904 11.7197ZM6.57904 4.28033L10.8291 8.53033L11.8897 7.46967L7.6397 3.21967L6.57904 4.28033ZM10.8291 7.46967L6.57904 11.7197L7.6397 12.7803L11.8897 8.53033L10.8291 7.46967Z" fill="white"/>
<path d="M2.10938 8H11.3594H2.10938Z" fill="white"/>
<path d="M2.10938 8H11.3594" stroke="white" stroke-width="1.5" stroke-linecap="round" stroke-dasharray="10 10"/>
</svg>
